<svg xmlns="http://www.w3.org/2000/svg" viewBox="0 0 512 512">
  <defs>
    <linearGradient id="bg" x1="0" y1="0" x2="0" y2="1">
      <stop offset="0%" stop-color="#10242A"/>
      <stop offset="48%" stop-color="#1A1A0E"/>
      <stop offset="100%" stop-color="#0F1512"/>
    </linearGradient>
    <linearGradient id="sun" x1="0" y1="0" x2="0" y2="1">
      <stop offset="0%" stop-color="#FFD700"/>
      <stop offset="100%" stop-color="#CE1126"/>
    </linearGradient>
    <linearGradient id="gold" x1="0" y1="0" x2="0" y2="1">
      <stop offset="0%" stop-color="#FFE58A"/>
      <stop offset="100%" stop-color="#D4A857"/>
    </linearGradient>
    <linearGradient id="ocean" x1="0" y1="0" x2="1" y2="0">
      <stop offset="0%" stop-color="#006B3F"/>
      <stop offset="100%" stop-color="#0077BE"/>
    </linearGradient>
    <clipPath id="rounded">
      <rect x="16" y="16" width="480" height="480" rx="96"/>
    </clipPath>
  </defs>

  <rect x="16" y="16" width="480" height="480" rx="96" fill="url(#bg)" stroke="#8B4513" stroke-width="10"/>

  <g clip-path="url(#rounded)">
    <rect x="16" y="16" width="480" height="24" fill="#006B3F"/>
    <rect x="16" y="40" width="480" height="24" fill="#FFD700"/>
    <rect x="16" y="64" width="480" height="24" fill="#CE1126"/>

    <circle cx="256" cy="178" r="82" fill="url(#sun)" opacity="0.92"/>
    <path d="M16 286 C106 252, 182 306, 256 284 C330 262, 408 314, 496 282 L496 416 L16 416 Z" fill="url(#ocean)" opacity="0.95"/>

    <polygon points="256,138 182,364 330,364" fill="url(#gold)"/>
    <circle cx="256" cy="332" r="52" fill="#1A1A0E" stroke="#D4A857" stroke-width="8"/>
    <circle cx="256" cy="244" r="52" fill="#FFD700" stroke="#D4A857" stroke-width="8"/>

    <g transform="translate(334 286) rotate(-12)">
      <rect x="0" y="0" width="86" height="86" rx="14" fill="#1A1A0E" stroke="#D4A857" stroke-width="6"/>
      <circle cx="28" cy="30" r="10" fill="#F4E1C1"/>
      <circle cx="58" cy="56" r="10" fill="#F4E1C1"/>
    </g>
  </g>
</svg>
